<svg width="194" height="199" viewBox="0 0 194 199" fill="none" xmlns="http://www.w3.org/2000/svg">
<path fill-rule="evenodd" clip-rule="evenodd" d="M59.8408 185.574C54.5324 183.656 49.7066 180.779 44.8808 177.902L44.8806 177.902C41.3224 175.78 38.0266 173.138 34.7996 170.55L34.7995 170.55C33.6499 169.628 32.509 168.714 31.3682 167.832C23.1642 160.16 15.9254 151.049 10.6169 141.458C8.20398 136.663 5.79105 131.388 3.8607 126.114C2.07797 121.242 1.11844 115.962 0.221857 111.028C0.147617 110.62 0.0738084 110.213 0 109.81V92.0679C0 90.5639 0.131888 89.0598 0.257768 87.6242C0.372681 86.3137 0.482587 85.0603 0.482587 83.9161C0.965174 81.039 1.44776 78.1619 1.93035 75.7643C2.17164 74.3258 2.53358 73.0071 2.89552 71.6884C3.25746 70.3697 3.6194 69.0511 3.8607 67.6125C4.82587 64.7354 5.79105 62.3378 6.75622 59.9402C8.68657 54.6655 11.5821 49.8703 14.4776 45.0752C20.2687 35.4848 27.9901 27.333 36.6766 20.6197C45.3632 13.9065 55.4975 8.63179 66.1144 5.27516C67.4595 4.74056 68.9545 4.35496 70.5159 3.95224C71.7555 3.63252 73.037 3.302 74.3184 2.87757C75.7661 2.63783 77.0931 2.39808 78.4202 2.15834L78.4204 2.15829C79.7475 1.91853 81.0746 1.67878 82.5224 1.43902C83.9702 1.19926 85.2973 1.07938 86.6244 0.959499C87.9515 0.839619 89.2786 0.71974 90.7264 0.47998H95.0697H97H98.9304H100.861C53.5672 2.39805 16.408 41.239 16.408 88.7113C16.408 96.8631 17.3731 105.015 19.7861 112.687C20.0274 113.886 20.3893 115.085 20.7512 116.284C21.1132 117.482 21.4751 118.681 21.7164 119.88C23.1642 124.196 25.0945 128.511 27.5075 132.347C31.8507 140.499 37.6418 147.692 44.8806 153.446L46.811 155.364C49.7064 157.762 52.6018 159.68 55.4972 161.598L55.4975 161.598C58.4077 163.405 61.592 164.94 64.6372 166.408C65.6318 166.887 66.6116 167.36 67.5622 167.832C68.3733 168.1 69.2222 168.407 70.0878 168.719C72.3123 169.521 74.6469 170.364 76.7314 170.709C79.6269 169.75 82.5224 168.311 86.3831 165.914C95.8474 157.816 108.319 159.537 120.6 161.232C130.862 162.648 140.991 164.046 149.119 159.68C150.085 159.2 151.05 158.721 152.498 159.2C152.583 159.243 152.673 159.286 152.764 159.329C153.705 159.776 154.868 160.33 154.428 162.078V163.037C151.05 176.943 134.159 176.943 123.06 175.504C122.155 175.376 121.319 175.247 120.543 175.128L120.543 175.128C118.423 174.802 116.751 174.545 115.338 174.545C111.96 174.066 109.547 175.504 110.03 177.422C110.03 179.34 112.443 181.738 118.234 183.176C141.838 187.415 159.912 172.004 172.949 160.887C182.035 153.14 188.675 147.478 193.035 152.008C197.378 158.721 146.224 227.772 59.8408 185.574ZM172.766 146.253C181.453 133.306 186.279 117.482 186.279 100.22C186.279 55.145 151.532 18.7016 109.065 18.7016C66.5971 18.7016 31.8508 55.145 31.8508 100.22C31.8508 117.482 36.6767 133.306 45.3632 146.253C32.3334 130.909 24.1294 111.249 24.1294 90.1498C24.1294 43.157 62.2538 5.27509 109.065 5.27509C155.876 5.27509 194 43.157 194 89.6703C194 111.249 186.279 130.909 172.766 146.253ZM129.333 79.1206H151.05C153.463 79.1206 155.393 80.5591 155.876 83.4362V107.892C155.876 110.289 153.945 112.207 151.532 112.207H129.816C127.403 112.207 125.473 114.125 125.473 116.523V137.622C125.473 140.019 123.542 141.937 121.129 141.937H96.5175C94.1045 141.937 92.1742 140.019 92.1742 137.622V116.523C92.1742 114.125 90.2439 112.207 87.8309 112.207H67.0797C64.6667 112.207 62.7364 110.289 62.7364 107.892V83.4362C62.7364 81.0386 64.6667 79.1206 67.0797 79.1206H87.8309C90.2439 79.1206 92.1742 77.2025 92.1742 74.8049V53.7061C92.1742 51.3085 94.1045 49.3905 96.5175 49.3905H120.647C123.06 49.3905 124.99 51.3085 124.99 53.7061V74.8049C124.99 77.2025 126.92 79.1206 129.333 79.1206Z" fill="url(#paint0_linear)" fill-opacity="0.2"/>
<defs>
<linearGradient id="paint0_linear" x1="153.268" y1="152.653" x2="47.0444" y2="12.6247" gradientUnits="userSpaceOnUse">
<stop stop-color="#38A762"/>
<stop offset="1" stop-color="#3FA1D5"/>
</linearGradient>
</defs>
</svg>
