<svg version="1" xmlns="http://www.w3.org/2000/svg" width="682.667" height="682.667" viewBox="0 0 512 512"><path d="M237.8.5c-.2.2-3.9.6-8.3 1s-8.2.9-8.5 1c-.3.2-3 .6-6 1-6.9.8-17 3-28.1 6.1-84.3 23.3-152 90.2-176.6 174.3-7 24-9.7 44-9.7 70.6-.1 19.9.8 30.8 3.3 45.5 6.7 38.1 22.7 76.1 44.3 105.3l5.1 6.8 26.3-26.3 26.3-26.2-2.1-3.6c-1.2-1.9-3-4.7-3.9-6.1-2.8-4.1-10.5-19.7-13.7-27.9-5.2-13.3-9.2-28.9-10.7-41.5-.3-2.8-.8-6.1-1.1-7.4-.6-3-.6-30.6 0-34.1.3-1.4 1-6.1 1.6-10.5 2.4-17.9 9.9-40.7 19.2-58.2 17.3-32.9 48.5-62.8 81.8-78.5 10.3-4.9 12.5-5.7 22-8.8 31.9-10.4 65.6-11.9 99-4.3 17 3.8 39.9 13.5 55.3 23.3l6.2 3.9 26.2-26.2L412 53.5l-2.7-2.3c-5.8-4.9-23.2-15.8-34.6-21.8-29-15.3-57.4-23.9-92.2-28-4.4-.6-44.3-1.3-44.7-.9zm194.5 125.8l-26.2 26.2 3.8 6c12.2 19.2 22.5 46 25.6 66.5.4 2.5.9 5.3 1.1 6.2.7 4.2 1.5 17 1.6 25.3 0 13-1.2 23.2-4.7 41-3.1 15.6-13.3 39.9-23.3 55.5-18.9 29.4-43.7 51.7-74.6 66.9-9.3 4.5-28.6 11.7-34.6 12.7-1.4.3-3.3.7-4.2 1-1 .3-3 .7-4.5 1-1.6.2-3.7.6-4.8.9-1.1.2-4 .6-6.5 1-2.5.3-6.3.7-8.5 1-5.4.7-26.8.7-33 0-30.5-3.3-56.9-12.3-80.8-27.4l-6.2-4-26.2 26.2c-19.5 19.5-25.9 26.4-25.2 27.4 1.7 2 22.8 15.8 31.4 20.5 26.3 14.3 58.7 25.4 83 28.4 2.2.3 4.5.7 5.2.9 5.5 1.8 46.4 2.6 60.3 1.2 48.7-4.9 94.7-23.4 132.5-53 13.9-10.9 26.7-23.1 36.4-34.7 2.5-3 4.8-5.7 5.1-6 1.7-1.5 10.6-13.9 16.3-22.6 17.7-26.9 33.4-67.6 37.2-96.4.3-2.5.8-5.6 1-7 1.9-11.2 2.6-43.1 1.2-59-3.6-41.6-18.2-82.7-42.3-118.7-4.1-6.1-8-11.6-8.7-12.1-.9-.8-8.1 5.8-27.4 25.1z"/></svg>