<svg width="52" height="52" viewBox="0 0 52 52" fill="none" xmlns="http://www.w3.org/2000/svg">
<path d="M26.1226 31.6375L48.9766 6.5042L51.9926 9.26025L26.3307 37.4269L12.334 24.1669L15.142 21.2116L26.1226 31.6375ZM50.3893 17.0342L47.2086 20.5009C48.5516 25.6262 48.007 31.0636 45.6743 35.8207C43.3415 40.5779 39.3761 44.3377 34.5017 46.4142C29.6272 48.4907 24.1686 48.7455 19.122 47.1319C14.0753 45.5184 9.77707 42.144 7.01148 37.6247C4.2459 33.1055 3.19736 27.7425 4.05723 22.5144C4.91711 17.2863 7.62807 12.5417 11.6954 9.1462C15.7628 5.75074 20.9153 3.9308 26.2129 4.01856C31.5105 4.10633 36.6 6.09596 40.5526 9.62428L43.2999 6.59095C38.5622 2.36804 32.4435 0.0238306 26.0969 0.000180703C19.7504 -0.0234692 13.6144 2.27503 8.84527 6.46252C4.07617 10.65 1.00339 16.4373 0.20606 22.7336C-0.591269 29.0299 0.941916 35.4004 4.51664 40.6445C8.09137 45.8886 13.4607 49.6441 19.6128 51.2032C25.7649 52.7623 32.2749 52.0173 37.9158 49.1087C43.5566 46.2001 47.9388 41.3287 50.2364 35.4126C52.534 29.4965 52.5884 22.9444 50.3893 16.9909V17.0342Z" fill="url(#paint0_linear)"/>
<defs>
<linearGradient id="paint0_linear" x1="25.8886" y1="-0.0390727" x2="25.8886" y2="52.2122" gradientUnits="userSpaceOnUse">
<stop stop-color="#2AF598"/>
<stop offset="1" stop-color="#009EFD"/>
</linearGradient>
</defs>
</svg>
