<svg width="88" height="24" viewBox="0 0 88 24" fill="none" xmlns="http://www.w3.org/2000/svg">
<path fill-rule="evenodd" clip-rule="evenodd" d="M12.43 23.37C18.8144 23.37 23.99 18.1945 23.99 11.8101C23.99 5.42565 18.8144 0.25 12.43 0.25C6.04558 0.25 0.869995 5.42565 0.869995 11.8101C0.869995 18.1945 6.04558 23.37 12.43 23.37ZM44.36 23.37C50.7444 23.37 55.92 18.1945 55.92 11.8101C55.92 5.42565 50.7444 0.25 44.36 0.25C37.9756 0.25 32.8 5.42565 32.8 11.8101C32.8 18.1945 37.9756 23.37 44.36 23.37ZM87.5 11.8101C87.5 18.1945 82.3244 23.37 75.94 23.37C69.5556 23.37 64.38 18.1945 64.38 11.8101C64.38 5.42565 69.5556 0.25 75.94 0.25C82.3244 0.25 87.5 5.42565 87.5 11.8101Z" fill="#A8A8A8"/>
</svg>
