<svg width="79" height="75" viewBox="0 0 79 75" fill="none" xmlns="http://www.w3.org/2000/svg">
<path fill-rule="evenodd" clip-rule="evenodd" d="M21.26 0H70.58C72.6134 0.00264593 74.5628 0.811559 76.0006 2.24939C77.4384 3.68722 78.2474 5.63665 78.25 7.67004V35C78.2474 37.0334 77.4384 38.9827 76.0006 40.4205C74.5628 41.8584 72.6134 42.6674 70.58 42.67H67.9V25.77C67.8974 23.0524 66.8166 20.4467 64.8949 18.525C62.9732 16.6033 60.3677 15.5227 57.65 15.52H13.59V7.67004C13.5927 5.63665 14.4016 3.68722 15.8394 2.24939C17.2772 0.811559 19.2266 0.00264593 21.26 0ZM8.32004 18.09H57.6501C59.6835 18.0926 61.6328 18.9015 63.0706 20.3394C64.5084 21.7772 65.3174 23.7266 65.32 25.76V53.1C65.3174 55.1334 64.5084 57.0828 63.0706 58.5206C61.6328 59.9585 59.6835 60.7674 57.6501 60.77H30.97L18.42 74.5699C18.2471 74.7658 18.0179 74.9036 17.7638 74.9645C17.5096 75.0253 17.2429 75.0063 17 74.91C16.7551 74.8166 16.5445 74.6506 16.3962 74.4344C16.2479 74.2183 16.169 73.9621 16.17 73.7V60.77H8.32004C6.28837 60.7647 4.34159 59.9546 2.90591 58.5171C1.47024 57.0795 0.662673 55.1316 0.660034 53.1V25.76C0.662673 23.7283 1.47024 21.7804 2.90591 20.3429C4.34159 18.9053 6.28837 18.0953 8.32004 18.09ZM13.2912 44.3763C14.1432 44.946 15.1451 45.25 16.17 45.25C17.5421 45.25 18.8582 44.7056 19.8293 43.7363C20.8005 42.7671 21.3474 41.452 21.35 40.08C21.352 39.055 21.0499 38.0526 20.4819 37.1995C19.9139 36.3463 19.1056 35.6808 18.1593 35.2872C17.2129 34.8936 16.1711 34.7895 15.1656 34.9883C14.1601 35.187 13.2362 35.6796 12.5108 36.4037C11.7853 37.1277 11.291 38.0507 11.0903 39.0558C10.8896 40.0609 10.9916 41.1028 11.3834 42.0499C11.7752 42.997 12.4391 43.8067 13.2912 44.3763ZM30.1084 44.3812C30.9618 44.9496 31.9647 45.252 32.99 45.25H33C34.3687 45.2447 35.6796 44.698 36.6464 43.7292C37.6132 42.7605 38.1574 41.4486 38.16 40.08C38.162 39.0546 37.8597 38.0517 37.2912 37.1984C36.7228 36.345 35.9139 35.6796 34.9669 35.2863C34.02 34.893 32.9776 34.7895 31.9719 34.989C30.9661 35.1886 30.0423 35.6822 29.3172 36.4072C28.5922 37.1323 28.0986 38.0561 27.8991 39.0619C27.6995 40.0676 27.803 41.11 28.1963 42.0569C28.5896 43.0038 29.2551 43.8128 30.1084 44.3812ZM46.9184 44.3812C47.7718 44.9496 48.7747 45.252 49.8 45.25C51.1704 45.2474 52.4839 44.7018 53.4529 43.7328C54.4218 42.7638 54.9674 41.4503 54.97 40.08C54.972 39.0546 54.6697 38.0517 54.1012 37.1984C53.5328 36.345 52.7239 35.6796 51.7769 35.2863C50.83 34.893 49.7877 34.7895 48.782 34.989C47.7762 35.1886 46.8523 35.6822 46.1272 36.4072C45.4022 37.1323 44.9086 38.0561 44.7091 39.0619C44.5095 40.0676 44.613 41.11 45.0063 42.0569C45.3996 43.0038 46.065 43.8128 46.9184 44.3812Z" fill="#A8A8A8"/>
</svg>
