<svg width="94" height="62" viewBox="0 0 94 62" fill="none" xmlns="http://www.w3.org/2000/svg">
<path fill-rule="evenodd" clip-rule="evenodd" d="M93.06 12.54V13.33V13.34C93.06 13.9208 92.8293 14.4778 92.4186 14.8886C92.0079 15.2993 91.4508 15.53 90.87 15.53H2.19C1.60918 15.53 1.05212 15.2993 0.641418 14.8886C0.230714 14.4778 0 13.9208 0 13.34V12.5501C-5.23461e-07 10.9011 0.324916 9.26829 0.956238 7.745C1.58756 6.22171 2.51289 4.83775 3.67932 3.67225C4.84576 2.50674 6.23048 1.5825 7.75427 0.952397C9.27806 0.322288 10.9111 -0.0013099 12.56 3.98501e-06H80.5C83.8277 -2.33794e-07 87.0193 1.3205 89.3742 3.67163C91.7291 6.02277 93.0547 9.21239 93.06 12.54ZM1.59255e-05 49.42V25.34C0.00790172 24.7644 0.242079 24.215 0.651932 23.8108C1.06179 23.4066 1.61435 23.18 2.19002 23.1801H90.87C91.4491 23.18 92.0046 23.4093 92.4151 23.8179C92.8255 24.2264 93.0574 24.7809 93.06 25.36V49.4399C93.06 52.7711 91.7367 55.9658 89.3812 58.3213C87.0258 60.6767 83.8311 62 80.5 62H12.56C10.9089 62 9.27401 61.6744 7.74886 61.042C6.2237 60.4095 4.83821 59.4826 3.67165 58.3142C2.50508 57.1458 1.58036 55.7588 0.950333 54.2327C0.320311 52.7065 -0.00261319 51.0711 1.59255e-05 49.42ZM17.43 40.63H23.24H23.26C24.2732 40.63 25.2447 40.2275 25.9611 39.5111C26.6775 38.7947 27.08 37.8232 27.08 36.8101C27.08 35.7969 26.6775 34.8253 25.9611 34.1089C25.2447 33.3925 24.2732 32.99 23.26 32.99H17.43C16.4169 32.99 15.4452 33.3925 14.7288 34.1089C14.0124 34.8253 13.61 35.7969 13.61 36.8101C13.61 37.8232 14.0124 38.7947 14.7288 39.5111C15.4452 40.2275 16.4169 40.63 17.43 40.63Z" fill="#A8A8A8"/>
</svg>
