<svg width="54" height="49" viewBox="0 0 54 49" fill="none" xmlns="http://www.w3.org/2000/svg">
<path d="M53.3383 20.6672C53.2488 20.4744 53.1059 20.3113 52.9266 20.1972C52.7473 20.0831 52.5391 20.0228 52.3265 20.0233H48.9818C47.9311 14.3697 44.9251 9.26577 40.4903 5.60519C36.0554 1.94461 30.4742 -0.0393934 24.7239 0.000592815C18.9736 0.040579 13.4205 2.10198 9.03699 5.82388C4.65346 9.54578 1.71883 14.691 0.746817 20.3587C-0.225197 26.0265 0.827391 31.8555 3.72029 36.8253C6.61319 41.7951 11.162 45.5889 16.5704 47.5426C21.9789 49.4963 27.9022 49.4854 33.3033 47.5117C38.7044 45.538 43.2392 41.7274 46.1137 36.7469C46.4098 36.2357 46.4907 35.6278 46.3386 35.057C46.1865 34.4862 45.8138 33.9993 45.3026 33.7032C44.7915 33.4071 44.1836 33.3263 43.6128 33.4784C43.042 33.6305 42.555 34.0031 42.2589 34.5143C39.9169 38.5625 36.2345 41.6656 31.8478 43.2875C27.4612 44.9095 22.6458 44.9483 18.2335 43.3974C13.8212 41.8465 10.0892 38.8033 7.68208 34.7934C5.27497 30.7835 4.34401 26.0589 5.04994 21.4356C5.75587 16.8123 8.05437 12.5807 11.5484 9.47185C15.0425 6.36301 19.5127 4.57214 24.1867 4.40864C28.8607 4.24515 33.4451 5.71928 37.1479 8.57637C40.8506 11.4335 43.4392 15.4941 44.4665 20.0568H41.1887C40.979 20.0604 40.7747 20.1231 40.5992 20.2378C40.4238 20.3525 40.2843 20.5145 40.1969 20.705C40.1095 20.8956 40.0777 21.1069 40.1052 21.3148C40.1327 21.5226 40.2185 21.7184 40.3525 21.8796L45.9298 28.569C46.032 28.6922 46.1597 28.7918 46.304 28.8611C46.4483 28.9303 46.6059 28.9676 46.7659 28.9704C46.9259 28.9671 47.0833 28.9295 47.2275 28.8603C47.3717 28.7911 47.4995 28.6918 47.6021 28.569L53.1794 21.8796C53.3205 21.7146 53.4106 21.5122 53.4388 21.297C53.467 21.0818 53.4321 20.8629 53.3383 20.6672Z" fill="#43BF43"/>
<path d="M24.925 5.54103C24.6322 5.53993 24.3421 5.59663 24.0713 5.70792C23.8004 5.81921 23.5542 5.98285 23.3468 6.1895C23.1394 6.39615 22.9748 6.64172 22.8625 6.91212C22.7502 7.18252 22.6924 7.47245 22.6924 7.76524V21.2946C21.9171 21.8612 21.3789 22.6947 21.1815 23.6345C20.9842 24.5743 21.1415 25.5539 21.6233 26.3845C22.1051 27.2152 22.8772 27.8382 23.791 28.1336C24.7047 28.4289 25.6954 28.3756 26.5723 27.984L34.3236 32.4576C34.6599 32.6577 35.0445 32.7618 35.4358 32.7586C35.9355 32.7711 36.4248 32.615 36.8249 32.3153C37.225 32.0156 37.5124 31.5899 37.6409 31.1068C37.7694 30.6238 37.7315 30.1115 37.5332 29.6526C37.3348 29.1938 36.9877 28.8151 36.5478 28.5777L28.7881 24.0958C28.736 23.5269 28.5591 22.9764 28.2701 22.4835C27.981 21.9907 27.5869 21.5676 27.1158 21.2444V7.76524C27.1137 7.18174 26.8833 6.62226 26.4738 6.20654C26.0643 5.79083 25.5084 5.55195 24.925 5.54103ZM24.925 26.1528C24.5942 26.1528 24.2709 26.0547 23.9959 25.871C23.7209 25.6872 23.5065 25.426 23.3799 25.1204C23.2534 24.8148 23.2203 24.4786 23.2848 24.1542C23.3493 23.8298 23.5086 23.5318 23.7424 23.2979C23.9763 23.064 24.2743 22.9048 24.5987 22.8402C24.9231 22.7757 25.2594 22.8088 25.565 22.9354C25.8706 23.062 26.1317 23.2763 26.3155 23.5513C26.4992 23.8263 26.5974 24.1497 26.5974 24.4804C26.5974 24.924 26.4211 25.3494 26.1075 25.663C25.7939 25.9766 25.3685 26.1528 24.925 26.1528Z" fill="#43BF43"/>
</svg>
