<svg width="37" height="52" viewBox="0 0 37 52" fill="none" xmlns="http://www.w3.org/2000/svg">
<path d="M18.8901 33.64C21.5322 33.6893 24.0887 32.7032 26.0134 30.8925C27.9381 29.0818 29.0782 26.5901 29.19 23.95C29.33 19.29 29.33 14.61 29.19 9.94996C29.0748 7.453 28.043 5.08615 26.2922 3.30213C24.5414 1.51811 22.1944 0.442093 19.7001 0.279916C14.3201 -0.0200841 9.60003 3.51994 8.92003 8.73994C8.72492 11.4759 8.70488 14.2214 8.86003 16.9599H8.69005C8.69005 19.2499 8.62005 21.5399 8.69005 23.8299C8.78601 26.4686 9.9035 28.9668 11.8066 30.7972C13.7097 32.6275 16.2496 33.6469 18.8901 33.64Z" fill="#C2C3C9"/>
<path d="M31.66 36.1099C33.3257 34.4659 34.6504 32.5093 35.5582 30.3522C36.4659 28.1952 36.939 25.8801 36.9501 23.5398C36.9912 22.8688 36.7641 22.209 36.3187 21.7055C35.8733 21.202 35.2461 20.896 34.5751 20.8548C33.9041 20.8137 33.2442 21.0409 32.7407 21.4863C32.2371 21.9317 31.9312 22.5588 31.8901 23.2298C31.8201 23.7698 31.8001 24.3299 31.7501 24.8699C31.5482 26.6123 30.9935 28.2953 30.1196 29.8162C29.2458 31.3371 28.0711 32.664 26.6674 33.7158C25.2636 34.7677 23.6604 35.5224 21.9553 35.934C20.2502 36.3456 18.479 36.4055 16.7501 36.1099C10.5401 34.8699 6.62004 30.3998 6.05004 23.8998C5.87004 21.8098 4.93004 20.7698 3.30004 20.8998C1.67004 21.0298 0.820066 22.1998 0.950066 24.2698C1.14987 28.809 3.07407 33.1009 6.33007 36.2698C9.06138 38.9372 12.5574 40.6852 16.3301 41.2698V46.6999C14.5501 46.6999 12.86 46.6999 11.18 46.6999C10.8472 46.6654 10.5108 46.7055 10.1955 46.8174C9.88013 46.9294 9.59367 47.1102 9.35705 47.3468C9.12042 47.5835 8.93956 47.8699 8.82763 48.1853C8.7157 48.5007 8.67557 48.837 8.71008 49.1698C8.66565 49.5135 8.69976 49.8628 8.80993 50.1914C8.9201 50.52 9.10343 50.8193 9.34606 51.0667C9.58869 51.3141 9.88428 51.5033 10.2106 51.6199C10.537 51.7365 10.8855 51.7775 11.23 51.7399C16.4 51.7399 21.5801 51.7999 26.7501 51.6899C27.1826 51.651 27.6021 51.5213 27.9812 51.3094C28.3603 51.0974 28.6904 50.8079 28.9501 50.4598C29.1934 50.0828 29.328 49.646 29.3391 49.1974C29.3502 48.7489 29.2374 48.3059 29.0131 47.9173C28.7888 47.5287 28.4617 47.2094 28.0677 46.9946C27.6738 46.7798 27.2282 46.6779 26.78 46.6999C25.06 46.6999 23.3401 46.6999 21.6301 46.6999V41.2698C25.4361 40.6574 28.9487 38.8503 31.66 36.1099Z" fill="#C2C3C9"/>
</svg>
