<svg width="70" height="70" viewBox="0 0 70 70" fill="none" xmlns="http://www.w3.org/2000/svg">
<path fill-rule="evenodd" clip-rule="evenodd" d="M68.8 20.87L54.45 1.5C54.2644 1.24584 54.0213 1.03914 53.7407 0.896606C53.4601 0.754074 53.1497 0.679688 52.835 0.679688C52.5202 0.679688 52.2099 0.754074 51.9293 0.896606C51.6487 1.03914 51.4057 1.24584 51.22 1.5L36.87 20.87C36.6437 21.1678 36.5055 21.523 36.4709 21.8954C36.4364 22.2678 36.507 22.6424 36.6747 22.9767C36.8423 23.311 37.1004 23.5916 37.4195 23.7866C37.7386 23.9816 38.106 24.0832 38.48 24.08H43.65V67.28C43.65 67.8105 43.8607 68.3191 44.2358 68.6942C44.6109 69.0693 45.1196 69.28 45.65 69.28H60C60.5304 69.28 61.0391 69.0693 61.4142 68.6942C61.7893 68.3191 62 67.8105 62 67.28V24.08H67.17C67.544 24.0832 67.9114 23.9816 68.2305 23.7866C68.5496 23.5916 68.8077 23.311 68.9753 22.9767C69.143 22.6424 69.2136 22.2678 69.1791 21.8954C69.1445 21.523 69.0063 21.1678 68.78 20.87H68.8ZM22.34 43.74H25.28L25.27 67.28C25.2709 67.961 25.3858 68.637 25.61 69.28H16.95C16.4196 69.28 15.9109 69.0693 15.5358 68.6942C15.1607 68.3191 14.95 67.8105 14.95 67.28V51.13C14.95 49.1701 15.7286 47.2904 17.1145 45.9045C18.5004 44.5186 20.38 43.74 22.34 43.74ZM8 54.5H10.93V67.28C10.9309 67.961 11.0458 68.637 11.27 69.28H2.60001C2.06957 69.28 1.56086 69.0693 1.18579 68.6942C0.810718 68.3191 0.600006 67.8105 0.600006 67.28V61.89C0.605295 59.93 1.38695 58.0518 2.77386 56.6667C4.16078 55.2817 6.03994 54.5026 8 54.5ZM36.69 33H39.63L39.65 67.3101C39.6494 67.992 39.7678 68.6688 40 69.3101H31.3C30.7696 69.3101 30.2608 69.0993 29.8858 68.7242C29.5107 68.3492 29.3 67.8405 29.3 67.3101V40.4C29.3 38.4392 30.0783 36.5584 31.4639 35.1709C32.8495 33.7834 34.7291 33.0027 36.69 33Z" fill="#A8A8A8"/>
</svg>
