<svg viewBox="0 0 69 70" fill="blue" xmlns="http://www.w3.org/2000/svg">
<path d="M67.31 27.8597L36.67 1.13977C36.0475 0.598105 35.2502 0.299805 34.425 0.299805C33.5998 0.299805 32.8025 0.598105 32.18 1.13977L1.54 27.8597C1.19044 28.1697 0.943108 28.5785 0.830632 29.032C0.718156 29.4855 0.745832 29.9624 0.910008 30.3998C1.07097 30.8356 1.36121 31.2117 1.74187 31.478C2.12253 31.7443 2.57545 31.888 3.04 31.8898H6.74001V67.3098C6.72112 67.9156 6.94312 68.5041 7.35737 68.9464C7.77161 69.3888 8.34432 69.6489 8.95 69.6698H59.95C60.2465 69.657 60.5374 69.5856 60.8062 69.4598C61.075 69.3341 61.3162 69.1565 61.5161 68.9371C61.7159 68.7178 61.8704 68.4611 61.9706 68.1818C62.0708 67.9025 62.1148 67.6062 62.1 67.3098V31.8898H65.85C66.3159 31.8886 66.7704 31.7454 67.1528 31.4791C67.5352 31.2129 67.8272 30.8364 67.99 30.3998C68.147 29.9573 68.166 29.4777 68.0446 29.0242C67.9232 28.5707 67.667 28.1646 67.31 27.8597ZM40.9 47.7097C40.8949 48.1652 40.7123 48.6008 40.3911 48.9238C40.07 49.2469 39.6355 49.4319 39.18 49.4397H29.68C29.2291 49.4292 28.8003 49.242 28.486 48.9185C28.1718 48.5949 27.9973 48.1608 28 47.7097V36.9998C28 35.2891 28.6796 33.6486 29.8892 32.439C31.0988 31.2294 32.7394 30.5498 34.45 30.5498C36.1606 30.5498 37.8012 31.2294 39.0108 32.439C40.2204 33.6486 40.9 35.2891 40.9 36.9998V47.7297V47.7097Z"/>
</svg>
