<svg width="62" height="62" viewBox="0 0 62 62" fill="none" xmlns="http://www.w3.org/2000/svg">
<path fill-rule="evenodd" clip-rule="evenodd" d="M25.8333 0H56.8333C59.6869 0 62 2.31325 62 5.16671V56.8333C62 59.6869 59.6869 62 56.8333 62.0001H25.8333C22.9797 62.0001 20.6666 59.6869 20.6666 56.8334V47.7917C20.6666 47.0783 21.2449 46.5 21.9583 46.5H24.5416C25.255 46.5 25.8333 47.0783 25.8333 47.7917V56.8334H56.8333V5.16671H25.8333V14.2084C25.8333 14.9218 25.255 15.5001 24.5416 15.5001H21.9583C21.2449 15.5001 20.6666 14.9218 20.6666 14.2084V5.16671C20.6666 2.31325 22.9799 0 25.8333 0ZM28.4167 42.625C28.4167 42.2592 28.5718 41.9098 28.8443 41.6651L37.8235 33.5833H1.29171C0.577738 33.5833 0 33.0055 0 32.2916V29.7083C0 28.9944 0.577738 28.4167 1.29171 28.4167H37.8235L28.8443 20.3349C28.5718 20.0902 28.4167 19.7408 28.4167 19.375V16.7916C28.4167 16.2795 28.7194 15.8153 29.1887 15.6097C29.6542 15.4003 30.2028 15.4949 30.5813 15.8393L46.0812 30.0476C46.3486 30.2923 46.5 30.6379 46.5 31C46.5 31.362 46.3486 31.7077 46.0812 31.9523L30.5813 46.1606C30.3379 46.3825 30.0251 46.4999 29.7084 46.4999C29.5331 46.4999 29.3552 46.4646 29.1887 46.3901C28.7194 46.1847 28.4167 45.7204 28.4167 45.2083V42.625Z"/>
</svg>
