<?xml version="1.0" standalone="no"?>
<!DOCTYPE svg PUBLIC "-//W3C//DTD SVG 20010904//EN"
 "http://www.w3.org/TR/2001/REC-SVG-20010904/DTD/svg10.dtd">
<svg version="1.0" xmlns="http://www.w3.org/2000/svg"
 width="300.000000pt" height="300.000000pt" viewBox="0 0 300.000000 300.000000"
 preserveAspectRatio="xMidYMid meet">
<metadata>
Created by potrace 1.11, written by Peter Selinger 2001-2013
</metadata>
<g transform="translate(0.000000,300.000000) scale(0.100000,-0.100000)"
fill="#000000" stroke="none">
<path d="M80 2528 c-13 -8 -31 -25 -39 -40 -28 -48 -2 -99 109 -213 106 -110
124 -137 133 -206 4 -26 18 -69 32 -95 21 -39 25 -57 20 -89 -3 -23 0 -67 9
-105 8 -36 19 -103 25 -149 12 -98 35 -149 76 -173 26 -14 62 -17 255 -18 124
0 279 -4 345 -7 103 -6 114 -8 75 -15 -25 -4 -54 -5 -65 -2 -15 4 -16 3 -6 -4
9 -7 12 -20 7 -45 -5 -25 -2 -38 9 -47 23 -19 18 -38 -12 -43 l-28 -4 28 -2
c15 0 27 -5 27 -10 0 -9 -33 -40 -80 -74 l-25 -18 25 12 c14 6 41 27 61 46 34
32 35 37 32 91 -2 31 -5 62 -7 69 -5 11 8 14 149 28 23 3 32 1 20 -3 -11 -4
-21 -13 -23 -20 -2 -11 7 -12 39 -7 27 5 39 4 35 -3 -3 -6 -1 -12 4 -14 6 -2
-22 -14 -62 -27 -40 -13 -86 -29 -103 -35 -16 -6 -33 -10 -37 -8 -4 1 -5 -5
-1 -14 3 -8 11 -13 17 -10 181 78 215 87 217 61 1 -8 3 -19 4 -25 1 -5 3 -15
4 -21 0 -5 7 -7 13 -2 7 4 -5 -17 -26 -47 l-39 -54 49 42 c27 23 51 37 52 32
2 -6 -10 -49 -27 -96 -17 -47 -27 -83 -22 -80 5 4 23 48 41 99 27 82 59 153
60 136 0 -4 -7 -23 -15 -42 -8 -20 -15 -44 -14 -54 0 -10 7 -2 14 17 l13 35 2
-40 c1 -22 7 -71 13 -110 11 -64 14 -70 37 -70 22 0 25 6 35 60 l10 60 14 -58
c7 -32 15 -57 17 -54 2 2 -2 33 -11 68 -8 35 -14 82 -14 104 l1 40 18 -50 c33
-89 21 -22 -14 80 -5 13 -2 12 8 -5 8 -14 29 -65 46 -115 28 -82 49 -131 50
-113 0 4 -13 44 -30 90 -17 45 -30 85 -30 90 0 17 21 6 60 -30 46 -45 50 -44
15 2 -39 52 -30 57 40 24 37 -17 68 -29 70 -26 2 2 -15 28 -37 57 -23 30 -34
52 -25 48 9 -3 51 -18 94 -33 43 -15 83 -32 88 -38 6 -6 6 -8 1 -4 -10 8 -29
-9 -40 -37 -6 -16 -2 -15 22 8 l28 27 25 -26 c13 -14 38 -32 54 -40 l30 -14
-25 17 c-45 33 -80 65 -80 73 0 5 12 11 28 13 l27 4 -27 2 c-31 1 -37 21 -13
41 11 9 14 22 9 47 -5 25 -2 38 7 45 10 7 9 8 -6 4 -11 -3 -40 -2 -65 2 -39 7
-28 9 75 15 66 3 221 7 345 7 193 1 229 4 255 18 41 24 64 75 76 173 6 46 17
113 25 149 9 38 12 82 9 105 -5 32 -1 50 19 87 13 26 29 72 35 102 14 77 21
87 132 201 110 114 136 165 108 213 -24 43 -55 53 -139 46 -322 -27 -644 -223
-933 -567 -121 -144 -290 -364 -311 -405 -9 -18 -21 -30 -26 -27 -6 4 -5 14 3
26 10 17 9 22 -6 34 -17 12 -11 23 83 152 55 76 116 158 135 183 19 25 35 50
34 55 0 19 -64 -62 -158 -198 -98 -143 -126 -177 -141 -177 -15 0 -43 35 -141
176 -102 148 -149 207 -156 200 -3 -3 32 -56 79 -118 197 -264 193 -257 172
-273 -16 -12 -17 -17 -7 -34 8 -12 9 -22 3 -26 -5 -3 -17 9 -26 27 -21 41
-190 261 -311 405 -288 343 -611 540 -933 567 -53 4 -82 3 -100 -6z m90 -58
c24 -15 7 -19 -25 -5 -23 10 -25 14 -10 14 11 0 27 -3 35 -9z m2700 0 c-8 -5
-24 -10 -35 -10 -17 0 -17 2 -5 10 8 5 24 10 35 10 17 0 17 -2 5 -10z m-2350
-117 c74 -26 127 -49 118 -51 -10 -2 -18 -7 -18 -12 0 -10 -84 11 -125 32 -35
18 -101 31 -158 30 -44 -1 -107 21 -107 37 0 11 78 20 125 15 17 -2 91 -25
165 -51z m2000 53 c0 -2 -7 -7 -16 -10 -8 -3 -12 -2 -9 4 6 10 25 14 25 6z
m216 -6 c19 0 34 -4 34 -10 0 -19 -47 -34 -131 -41 -54 -4 -111 -16 -150 -32
-72 -28 -144 -45 -119 -28 13 9 12 11 -4 11 -33 0 -14 8 135 60 98 34 153 49
173 45 16 -3 44 -5 62 -5z m-2058 -70 c43 -22 97 -58 122 -80 27 -24 34 -34
17 -24 -25 15 -27 15 -21 0 4 -12 0 -16 -15 -16 -19 0 -25 8 -18 28 1 4 7 6
12 4 20 -5 -34 35 -103 77 -41 25 -76 40 -83 35 -8 -4 -9 -3 -5 4 10 16 9 17
94 -28z m1738 28 c4 -7 3 -8 -5 -4 -7 5 -42 -10 -83 -35 -69 -42 -123 -82
-103 -77 6 2 11 0 13 -4 6 -20 0 -28 -19 -28 -15 0 -19 4 -15 16 6 15 4 15
-21 0 -17 -10 -9 0 17 24 38 34 181 119 202 120 4 0 10 -5 14 -12z m-1874 -69
c118 -29 208 -73 208 -101 0 -11 -39 -10 -98 3 -44 9 -50 14 -56 40 -3 16 -11
29 -17 29 -8 0 -7 -5 2 -17 7 -10 9 -15 5 -11 -12 10 -38 -11 -30 -24 4 -6 -3
-5 -14 1 -12 6 -63 14 -114 18 -51 3 -102 9 -113 13 -19 8 -19 9 5 18 14 6 18
11 10 11 -9 1 -27 9 -40 19 l-25 17 45 6 c61 9 139 1 232 -22z m2151 21 l42
-1 -24 -19 c-13 -11 -31 -20 -40 -21 -10 0 -8 -4 8 -10 37 -15 18 -22 -81 -30
-51 -3 -111 -10 -132 -14 -28 -6 -37 -5 -32 4 4 6 3 11 -3 11 -5 0 -12 8 -14
18 -3 12 -7 7 -12 -15 -6 -28 -13 -33 -57 -42 -100 -22 -124 -8 -60 35 62 43
299 102 350 88 8 -2 32 -4 55 -4z m-2160 -127 c-13 -2 -23 -11 -23 -19 0 -11
-6 -14 -22 -9 -22 7 -22 6 -4 -8 22 -16 16 -50 -7 -41 -9 3 -16 -3 -20 -15 -3
-12 0 -22 6 -22 21 -2 -76 -17 -115 -18 -81 -2 -12 67 70 70 20 1 22 2 7 6
-36 8 -75 25 -75 34 0 12 78 27 145 27 33 -1 50 -3 38 -5z m2067 -4 c27 -6 50
-14 50 -18 0 -11 -47 -31 -70 -31 -10 0 -22 -5 -26 -12 -5 -7 -3 -8 5 -4 24
15 95 -4 114 -30 11 -14 17 -28 14 -31 -3 -3 -38 -2 -77 2 -39 4 -69 10 -66
13 3 3 0 12 -7 20 -10 13 -9 14 2 7 10 -5 12 -4 7 4 -4 6 -14 10 -23 9 -8 -2
-19 7 -24 20 -5 13 -5 21 -1 18 4 -2 14 0 22 5 13 9 13 9 0 7 -8 -1 -28 5 -45
15 l-30 16 52 1 c29 0 75 -5 103 -11z m-1941 -35 c1 -1 0 -7 -3 -13 -5 -7 -15
-7 -34 1 -46 20 -50 30 -7 22 22 -3 42 -8 44 -10z m1731 -3 c-34 -19 -50 -19
-50 -1 0 8 28 15 70 18 8 1 -1 -7 -20 -17z m-1647 -53 c30 -29 70 -65 88 -80
l34 -28 -30 11 c-48 17 -97 50 -92 63 3 7 -15 23 -39 37 -44 24 -50 30 -37 42
12 13 21 7 76 -45z m1594 36 c3 -9 -78 -55 -95 -54 -4 1 11 16 33 35 39 34 55
39 62 19z m-1454 -56 c4 -14 -4 -12 -50 10 -53 26 -54 27 -26 32 31 7 69 -14
76 -42z m-433 -38 c-14 -11 -28 -20 -31 -20 -4 0 -9 -9 -12 -21 -4 -16 1 -23
24 -31 l29 -10 -32 -21 c-43 -30 -45 -43 -6 -63 l33 -18 -25 -7 c-14 -4 -36
-7 -48 -8 -23 -1 -24 2 -20 54 1 30 0 55 -3 55 -12 0 -42 81 -33 90 8 8 45 13
124 18 l25 2 -25 -20z m2224 -1 c9 -8 -21 -89 -33 -89 -3 0 -4 -25 -3 -55 4
-60 3 -61 -63 -46 l-30 7 33 17 c17 10 32 22 32 27 0 5 -16 20 -36 34 l-37 25
26 6 c14 4 32 14 39 23 11 13 11 14 -1 8 -9 -6 -12 -5 -9 5 3 8 -10 23 -31 36
l-36 23 70 -6 c39 -4 74 -10 79 -15z m-1953 -35 c51 -37 74 -68 64 -84 -3 -5
-30 -14 -61 -21 -50 -11 -57 -11 -82 8 -15 11 -33 37 -41 58 -14 36 -14 39 8
56 33 27 57 24 112 -17z m1670 17 c22 -17 22 -20 8 -56 -21 -57 -56 -78 -112
-70 -93 14 -96 42 -13 105 57 44 83 49 117 21z m-1861 -46 c22 -26 -4 -43 -30
-20 -11 10 -20 22 -20 27 0 14 37 9 50 -7z m1984 6 c8 -12 -31 -44 -43 -36 -8
4 -8 12 -1 26 11 20 35 25 44 10z m-1577 -117 c152 -117 294 -237 288 -242 -8
-9 -105 61 -230 165 -190 158 -228 209 -58 77z m1212 50 c-71 -78 -362 -304
-375 -292 -7 7 373 316 390 317 5 1 -1 -11 -15 -25z m-991 -57 c14 -15 27 -25
30 -22 3 2 -3 14 -13 25 -10 11 -15 20 -12 20 11 0 77 -92 71 -101 -2 -4 26
-50 64 -101 76 -104 96 -137 88 -145 -3 -4 -14 1 -24 10 -10 10 -22 14 -27 10
-4 -5 -5 -2 -1 5 6 11 11 11 24 0 9 -7 -7 15 -36 49 -29 33 -48 63 -42 65 5 1
-11 29 -36 61 -27 35 -51 56 -59 53 -13 -5 -52 42 -47 57 1 5 -2 6 -8 2 -5 -3
-10 1 -10 10 0 9 -8 28 -17 43 l-17 27 24 -20 c13 -11 35 -33 48 -48z m722 39
c0 -2 -8 -10 -17 -17 -16 -13 -17 -12 -4 4 13 16 21 21 21 13z m-709 -126 c48
-59 86 -97 93 -93 6 3 8 3 4 -2 -4 -4 10 -28 32 -54 27 -32 36 -48 27 -53 -7
-4 -17 -1 -24 8 -6 8 -14 15 -17 14 -18 -4 -28 7 -12 13 11 5 15 3 10 -5 -4
-7 -3 -8 5 -4 7 5 -27 48 -99 123 -60 63 -108 119 -105 123 3 5 1 11 -5 15 -5
3 -10 11 -10 16 0 18 18 0 101 -101z m656 92 c-25 -27 -21 -38 5 -16 17 15
-38 -64 -115 -164 -21 -27 36 -5 62 24 14 16 53 54 86 84 l60 55 -62 -70 c-77
-88 -173 -182 -173 -170 0 5 12 22 27 37 15 15 24 28 21 28 -3 0 -30 -28 -59
-62 -29 -35 -41 -53 -27 -40 14 13 28 20 30 15 3 -4 3 -3 2 4 -2 7 5 10 17 8
11 -2 17 0 14 4 -6 11 196 188 245 215 21 12 -93 -95 -167 -156 -34 -28 -60
-55 -57 -59 5 -8 -3 -11 -23 -8 -3 0 -10 -6 -15 -15 -5 -9 -14 -14 -19 -10 -6
3 -21 -4 -35 -17 -13 -12 -27 -20 -30 -17 -8 9 11 41 88 145 38 51 67 97 64
102 -6 9 59 101 71 101 3 0 -1 -8 -10 -18z m54 -9 c-6 -10 -25 -34 -42 -53
l-31 -35 27 40 c38 54 47 65 52 65 2 0 -1 -8 -6 -17z m-1107 -7 c64 -26 98
-105 60 -137 -8 -7 -39 -14 -67 -17 -115 -9 -173 94 -84 148 38 24 47 24 91 6z
m1543 -6 c32 -19 48 -52 41 -86 -5 -29 -66 -64 -110 -64 -42 0 -93 22 -101 42
-11 33 30 93 78 114 41 18 55 17 92 -6z m-1827 5 c0 -2 -18 -14 -40 -25 -47
-24 -51 -45 -13 -57 27 -9 27 -10 5 -15 -14 -4 -20 -2 -15 5 4 6 0 8 -9 5 -19
-8 -31 1 -45 34 -11 25 -10 27 20 37 59 18 97 24 97 16z m2117 -14 c25 -7 26
-10 17 -45 -4 -16 -11 -23 -20 -19 -8 3 -14 0 -14 -6 0 -6 -10 -11 -22 -10
l-23 0 23 11 c33 16 27 35 -18 58 -22 11 -40 23 -40 26 0 5 53 -3 97 -15z
m-1441 -105 c84 -86 108 -116 96 -121 -8 -3 -20 0 -26 6 -8 9 -6 10 9 5 11 -4
2 8 -20 26 -53 43 -176 158 -169 158 2 0 0 9 -6 20 -21 40 6 18 116 -94z
m-598 37 c2 -9 -7 -13 -27 -13 -30 0 -46 11 -34 24 11 11 56 2 61 -11z m1925
2 c1 -5 -13 -11 -30 -13 -31 -3 -42 6 -26 22 10 10 53 3 56 -9z m-501 -17
c-19 -19 -14 -28 21 -43 l32 -14 -40 0 c-22 0 -49 4 -59 8 -17 7 -16 10 15 34
35 28 52 36 31 15z m-958 -20 c-4 -6 -2 -8 3 -5 6 4 22 -2 34 -13 l24 -19 -65
1 c-36 0 -55 3 -42 5 12 2 20 9 16 14 -7 13 15 41 27 33 5 -3 6 -10 3 -16z
m260 -205 c-20 -15 -51 -16 -221 -7 -104 6 -122 9 -132 27 -10 15 -10 17 0 12
8 -5 10 -4 5 3 -4 6 -1 22 5 34 7 13 15 37 19 53 6 29 8 30 70 35 l65 5 104
-74 c95 -68 102 -75 85 -88z m727 148 c-9 -6 -10 -11 -2 -15 6 -4 11 -17 11
-30 0 -12 4 -26 9 -31 5 -6 12 -24 15 -41 l7 -32 -164 -7 c-124 -5 -170 -4
-188 5 l-23 13 28 22 c58 46 184 106 243 114 80 12 80 12 64 2z m-1111 -12 c0
-6 -10 -19 -22 -30 l-23 -19 30 -27 c19 -17 25 -28 17 -31 -7 -2 -19 -10 -26
-18 -10 -9 -38 -14 -89 -14 -62 0 -77 3 -93 21 -14 15 -16 24 -7 37 6 11 7 26
1 42 -14 39 11 50 119 50 60 0 93 -4 93 -11z m1390 -5 c7 -7 7 -19 2 -35 -6
-15 -5 -30 1 -41 9 -13 7 -22 -7 -37 -16 -18 -31 -21 -93 -21 -51 0 -79 5 -89
14 -7 8 -19 16 -26 18 -8 3 -2 14 17 31 l30 27 -22 19 c-43 36 -30 43 77 39
54 -1 104 -8 110 -14z m-535 -44 c-3 -5 -11 -10 -16 -10 -6 0 -7 5 -4 10 3 6
11 10 16 10 6 0 7 -4 4 -10z m-459 -125 c38 -8 72 -15 77 -15 4 0 7 -9 7 -20
0 -17 -7 -20 -41 -20 -41 0 -251 23 -356 39 -29 4 -50 4 -47 -1 3 -4 -40 -8
-95 -8 -100 0 -118 6 -107 37 6 13 34 14 250 9 151 -4 270 -12 312 -21z m76
13 c-8 -8 -17 -8 -34 0 -22 10 -21 11 12 11 26 1 31 -2 22 -11z m270 0 c-17
-8 -26 -8 -34 0 -9 9 -4 12 23 11 32 0 33 -1 11 -11z m398 1 c-11 -8 -9 -8 10
-2 14 4 63 8 110 8 78 0 85 -2 85 -20 0 -19 -7 -20 -160 -21 -88 -1 -214 -9
-280 -18 -165 -22 -205 -22 -205 4 0 11 3 20 8 20 4 1 27 6 52 11 44 10 218
24 335 27 44 1 56 -1 45 -9z m-162 -90 c20 -7 29 -15 25 -22 -4 -6 -6 -24 -5
-40 2 -19 -1 -26 -9 -22 -8 6 -8 2 0 -14 15 -27 9 -26 -38 3 -21 14 -65 36
-97 51 l-59 26 50 -6 c45 -5 48 -4 27 8 -12 7 -19 16 -16 20 11 11 87 8 122
-4z m-538 -19 c0 -5 -5 -10 -11 -10 -5 0 -7 5 -4 10 3 6 8 10 11 10 2 0 4 -4
4 -10z m315 0 c3 -5 1 -10 -4 -10 -6 0 -11 5 -11 10 0 6 2 10 4 10 3 0 8 -4
11 -10z m-242 -40 c-3 -11 -9 -23 -14 -26 -5 -3 -6 2 -2 11 3 10 0 21 -8 26
-11 7 -9 9 8 9 16 0 20 -5 16 -20z m171 5 c-4 -8 0 -23 7 -33 13 -15 12 -16
-2 -4 -23 17 -31 52 -13 52 8 0 11 -6 8 -15z"/>
<path d="M1190 1812 c0 -5 10 -17 21 -28 22 -19 22 -19 10 3 -12 24 -31 39
-31 25z"/>
<path d="M1306 1577 c3 -10 9 -15 12 -12 3 3 0 11 -7 18 -10 9 -11 8 -5 -6z"/>
<path d="M1793 1808 c-23 -30 -24 -41 -2 -21 12 12 20 25 17 28 -3 3 -10 0
-15 -7z"/>
<path d="M738 1377 c-42 -23 -94 -57 -115 -75 -36 -32 -35 -31 16 5 30 20 87
54 125 75 39 21 67 38 61 38 -5 0 -45 -19 -87 -43z"/>
<path d="M2236 1382 c38 -21 95 -55 125 -76 l54 -38 -39 35 c-38 33 -183 117
-202 117 -5 0 23 -17 62 -38z"/>
<path d="M727 1336 c-4 -10 0 -12 14 -9 10 3 16 9 13 14 -8 13 -21 11 -27 -5z"/>
<path d="M2240 1337 c-14 -7 -25 -17 -25 -23 0 -5 -12 -25 -28 -43 -23 -28
-32 -32 -60 -27 -29 6 -30 5 -7 -4 13 -6 26 -13 28 -15 7 -7 -29 -65 -38 -60
-6 4 -7 -1 -3 -11 5 -14 3 -16 -10 -11 -43 17 -52 18 -29 1 21 -16 22 -18 6
-35 -23 -26 -31 -24 -67 14 -16 17 -25 23 -19 12 5 -11 19 -28 30 -39 12 -10
18 -24 16 -31 -3 -7 -42 -37 -86 -67 -44 -29 -99 -65 -121 -80 -23 -16 -49
-28 -59 -28 -10 0 -18 -6 -18 -14 0 -8 -5 -16 -11 -18 -11 -4 42 -150 86 -237
25 -49 25 -52 5 -41 -12 6 -25 21 -29 33 -5 12 -16 38 -25 57 -14 31 -14 19 1
-30 3 -8 -15 6 -40 31 -36 36 -50 62 -73 132 -15 47 -30 85 -32 82 -2 -2 8
-40 23 -85 32 -96 93 -172 208 -258 61 -46 75 -53 101 -47 17 3 62 10 100 16
40 5 79 18 93 29 14 11 41 22 62 26 63 10 70 14 100 58 17 24 44 49 60 56 24
9 35 25 51 68 12 31 36 72 55 93 22 24 35 51 40 80 3 24 11 59 17 78 9 28 6
44 -17 105 -28 72 -88 166 -106 166 -6 0 -7 -5 -3 -11 3 -6 -5 -4 -19 5 -14
10 -36 19 -50 22 -14 2 -45 13 -69 24 -23 11 -33 19 -21 16 15 -3 20 0 16 10
-3 8 -6 14 -7 13 0 0 -12 -6 -26 -12z m203 -198 c-6 -6 -17 -7 -26 -3 -13 5
-14 10 -6 25 5 10 7 19 4 19 -4 0 -3 5 1 11 4 8 12 2 21 -16 9 -16 11 -31 6
-36z m-42 -59 c23 -13 26 -33 3 -28 -8 2 -14 7 -14 12 1 5 -4 13 -12 17 -19
12 0 11 23 -1z m-16 -81 c21 -39 16 -53 -11 -35 -15 11 -20 23 -17 41 7 32 9
32 28 -6z m-76 -69 c11 0 22 9 26 20 6 20 7 20 36 -1 35 -25 28 -43 -14 -35
l-30 6 6 -46 c3 -33 13 -54 36 -78 56 -58 32 -52 -27 7 -32 32 -61 54 -66 50
-4 -4 -4 0 0 10 5 14 9 15 20 6 8 -6 14 -8 14 -3 0 4 -24 30 -52 57 l-53 49
42 -21 c23 -12 51 -21 62 -21z m191 -10 c0 -16 -5 -30 -12 -30 -13 0 -78 42
-78 50 0 3 20 6 45 8 44 2 45 1 45 -28z m-234 -85 c16 16 18 15 42 -8 25 -25
22 -53 -4 -43 -8 3 -14 -1 -14 -10 0 -8 -4 -12 -10 -9 -5 3 -10 1 -10 -5 0 -6
-5 -8 -12 -4 -8 5 -9 2 -4 -12 21 -51 -6 -72 -42 -33 -19 20 -20 55 -2 44 22
-14 -1 27 -48 83 -28 35 -52 65 -52 68 0 2 31 -17 70 -42 65 -44 70 -45 86
-29z m-114 -47 c23 -29 38 -49 31 -45 -6 4 -31 30 -55 59 -23 29 -38 49 -31
45 6 -4 31 -30 55 -59z m-12 -74 c0 -8 -5 -12 -10 -9 -6 4 -8 11 -5 16 9 14
15 11 15 -7z m55 -4 c10 -11 15 -23 12 -26 -9 -10 -59 25 -52 36 9 15 20 12
40 -10z m-285 -20 c6 -11 8 -20 6 -20 -3 0 -10 9 -16 20 -6 11 -8 20 -6 20 3
0 10 -9 16 -20z m236 -77 c-9 -10 -59 10 -64 25 -2 6 3 12 11 12 9 0 19 10 23
22 6 20 8 19 22 -15 8 -21 12 -41 8 -44z m-73 -10 c-6 -16 -15 -17 -31 -1 -9
9 -7 14 6 24 19 14 34 0 25 -23z m-113 -3 c6 -11 8 -20 6 -20 -3 0 -10 9 -16
20 -6 11 -8 20 -6 20 3 0 10 -9 16 -20z m36 -27 c-10 -10 -19 5 -10 18 6 11 8
11 12 0 2 -7 1 -15 -2 -18z"/>
<path d="M722 1309 c-24 -10 -49 -16 -55 -12 -6 4 -7 1 -2 -7 6 -10 4 -12 -7
-8 -8 4 -30 -2 -47 -13 -18 -11 -30 -15 -26 -9 3 5 2 10 -4 10 -18 0 -78 -95
-105 -167 -23 -61 -26 -78 -18 -105 6 -18 14 -53 17 -77 5 -29 18 -56 40 -80
19 -21 43 -62 55 -93 16 -43 27 -59 51 -68 16 -7 43 -32 60 -56 30 -44 37 -48
100 -58 21 -4 49 -16 63 -27 16 -12 52 -24 93 -29 38 -5 82 -12 99 -15 26 -6
40 1 101 47 115 86 176 162 208 258 15 45 25 83 23 85 -2 3 -17 -35 -32 -82
-23 -69 -37 -96 -73 -132 -38 -40 -44 -43 -38 -21 5 22 4 22 -11 -5 -9 -16
-22 -33 -28 -37 -6 -4 -7 -8 -2 -8 11 0 -14 -30 -25 -30 -5 0 2 23 17 51 43
87 96 233 85 237 -6 2 -11 10 -11 18 0 8 -8 14 -18 14 -11 0 -39 14 -63 30
-24 17 -75 52 -114 77 -96 64 -100 70 -64 111 38 43 38 53 0 13 -33 -35 -38
-36 -66 -15 -20 15 -20 15 5 35 23 19 18 20 -20 5 -11 -5 -23 5 -39 34 -25 46
-26 45 9 60 23 9 22 10 -7 4 -27 -5 -37 0 -62 28 -17 18 -29 39 -26 46 6 17
-12 14 -63 -9z m-138 -129 c-1 -17 3 -30 9 -30 7 0 4 -5 -6 -11 -30 -18 -42 3
-23 40 20 38 23 39 20 1z m33 -110 c1 -14 -4 -20 -18 -20 -24 0 -25 16 -1 29
9 6 17 11 17 11 1 0 1 -9 2 -20z m18 -49 c-3 -5 -1 -12 5 -16 19 -12 10 -23
-52 -69 -73 -55 -88 -57 -88 -15 0 31 1 31 38 26 45 -8 52 -3 74 46 10 20 20
37 23 37 4 0 4 -4 0 -9z m57 -91 c10 0 38 9 61 20 l42 19 -48 -42 c-26 -23
-47 -46 -47 -51 0 -5 7 -3 15 4 13 11 14 10 9 -5 -5 -13 -4 -16 4 -11 7 4 10
2 7 -6 -3 -7 -1 -19 4 -27 8 -12 23 -6 81 33 79 52 80 41 5 -42 -42 -46 -46
-56 -24 -54 14 2 -1 -53 -17 -65 -34 -25 -64 -9 -46 24 8 13 4 21 -13 35 -13
10 -28 18 -33 18 -24 0 -22 24 4 53 16 18 1 5 -34 -28 -62 -60 -86 -67 -34
-10 38 41 54 79 39 94 -8 8 -8 11 2 11 7 0 9 5 6 10 -3 6 -17 7 -30 4 -34 -8
-43 15 -14 37 23 18 24 18 33 -1 5 -11 18 -20 28 -20z m178 -130 c-23 -27 -47
-53 -53 -57 -11 -6 9 20 62 80 42 46 35 30 -9 -23z m-27 -84 c7 3 1 -4 -12
-15 -38 -34 -57 -25 -24 11 10 11 19 15 21 9 2 -6 9 -9 15 -5z m37 -2 c0 -8
-4 -12 -10 -9 -5 3 -10 10 -10 16 0 5 5 9 10 9 6 0 10 -7 10 -16z m220 -24
c-6 -11 -13 -20 -16 -20 -2 0 0 9 6 20 6 11 13 20 16 20 2 0 0 -9 -6 -20z
m-185 -51 c0 -15 -51 -37 -61 -26 -4 3 -1 20 6 37 12 28 14 30 34 17 11 -8 21
-21 21 -28z m29 -11 c-5 -8 -2 -9 9 -5 21 8 22 -6 1 -24 -13 -10 -17 -10 -24
1 -9 15 -2 40 12 40 5 0 6 -5 2 -12z m70 -43 c3 -8 1 -15 -4 -15 -6 0 -10 7
-10 15 0 8 2 15 4 15 2 0 6 -7 10 -15z"/>
<path d="M968 1263 c6 -2 18 -2 25 0 6 3 1 5 -13 5 -14 0 -19 -2 -12 -5z"/>
<path d="M2008 1263 c6 -2 18 -2 25 0 6 3 1 5 -13 5 -14 0 -19 -2 -12 -5z"/>
<path d="M918 1253 c7 -3 16 -2 19 1 4 3 -2 6 -13 5 -11 0 -14 -3 -6 -6z"/>
<path d="M1100 1247 c1 -7 15 -28 31 -47 l31 -35 -18 35 c-10 19 -17 38 -16
42 1 3 -5 9 -13 12 -8 3 -15 0 -15 -7z"/>
<path d="M2068 1253 c7 -3 16 -2 19 1 4 3 -2 6 -13 5 -11 0 -14 -3 -6 -6z"/>
<path d="M1825 1158 c-23 -24 -25 -28 -7 -19 12 6 26 20 32 31 14 27 10 25
-25 -12z"/>
<path d="M1432 1124 c-6 -32 -10 -59 -8 -61 6 -6 28 95 24 108 -2 6 -9 -15
-16 -47z"/>
<path d="M1274 1162 c-11 -7 -57 -193 -49 -200 4 -5 36 104 42 148 3 19 10 41
16 48 11 14 8 15 -9 4z"/>
<path d="M1719 1152 c5 -9 16 -51 26 -92 10 -41 22 -82 27 -90 7 -12 8 -11 4
5 -2 11 -12 57 -22 102 -9 46 -23 84 -30 87 -10 4 -11 1 -5 -12z"/>
<path d="M1160 1156 c0 -3 9 -10 20 -16 11 -6 20 -8 20 -6 0 3 -9 10 -20 16
-11 6 -20 8 -20 6z"/>
<path d="M1222 1130 c-12 -12 -22 -23 -22 -26 0 -8 49 30 50 39 0 11 -4 9 -28
-13z"/>
<path d="M1750 1140 c0 -5 5 -10 11 -10 5 0 7 -6 3 -12 -4 -7 -4 -10 1 -6 4 4
14 3 22 -4 10 -8 12 -8 8 3 -7 18 -45 43 -45 29z"/>
<path d="M1391 1114 c0 -11 3 -14 6 -6 3 7 2 16 -1 19 -3 4 -6 -2 -5 -13z"/>
<path d="M1601 1114 c0 -11 3 -14 6 -6 3 7 2 16 -1 19 -3 4 -6 -2 -5 -13z"/>
<path d="M1406 1024 c-4 -14 -5 -28 -3 -31 3 -2 8 8 11 23 4 14 5 28 3 31 -3
2 -8 -8 -11 -23z"/>
<path d="M1581 1040 c0 -8 4 -24 9 -35 5 -13 9 -14 9 -5 0 8 -4 24 -9 35 -5
13 -9 14 -9 5z"/>
<path d="M1074 998 c-4 -6 -3 -8 4 -4 5 3 13 0 15 -6 3 -8 6 -6 6 5 1 19 -14
23 -25 5z"/>
<path d="M1901 993 c0 -11 3 -13 6 -5 2 6 10 9 15 6 7 -4 8 -2 4 4 -11 18 -26
14 -25 -5z"/>
</g>
</svg>
